<svg width="256" height="256" viewBox="0 0 256 256" xmlns="http://www.w3.org/2000/svg">
  <rect x="8" y="8" width="240" height="240" rx="56" fill="#060B16" />
  <rect x="8" y="8" width="240" height="240" rx="56" fill="none" stroke="#27303C" stroke-width="8" />
  <rect x="44" y="48" width="168" height="112" rx="26" fill="none" stroke="#FF6A1A" stroke-width="10" />
  <path d="M54 64L128 124L202 64" fill="none" stroke="#FF6A1A" stroke-width="10" stroke-linecap="round" stroke-linejoin="round" />
  <path d="M54 158L104 110" fill="none" stroke="#FF6A1A" stroke-width="10" stroke-linecap="round" stroke-linejoin="round" />
  <path d="M202 158L152 110" fill="none" stroke="#FF6A1A" stroke-width="10" stroke-linecap="round" stroke-linejoin="round" />
  <g fill="none" stroke="#9CA3AF" stroke-width="8" stroke-linecap="round" stroke-linejoin="round">
    <line x1="68" y1="184" x2="68" y2="220" />
    <path d="M100 220V184L116 206L132 184V220" />
    <path d="M160 220L148 184L172 184L184 220M152 204H168" />
    <path d="M204 220V184H224C234 184 240 190 240 198C240 206 234 212 224 212H204" />
  </g>
</svg>
